<?xml version="1.0" encoding="UTF-8"?>
<svg width="40px" height="40px" viewBox="0 0 40 40" version="1.1" xmlns="http://www.w3.org/2000/svg" xmlns:xlink="http://www.w3.org/1999/xlink">
    <!-- Generator: sketchtool 61 (101010) - https://sketch.com -->
    <title>0F95FFCA-87E1-4B86-B794-748A12E3D679</title>
    <desc>Created with sketchtool.</desc>
    <g id="Asset-Artboard-Page" stroke="none" stroke-width="1" fill="none" fill-rule="evenodd">
        <g id="user">
            <path d="M20,36.64 C23.04,36.64 25.8533333,35.88 28.44,34.36 C30.9466667,32.92 32.92,30.9466667 34.36,28.44 C35.88,25.8533333 36.64,23.04 36.64,20 C36.64,16.96 35.88,14.1466667 34.36,11.56 C32.92,9.05333333 30.9466667,7.08 28.44,5.64 C25.8533333,4.12 23.04,3.36 20,3.36 C16.9866667,3.36 14.1866667,4.12 11.6,5.64 C9.09333333,7.10666667 7.10666667,9.09333333 5.64,11.6 C4.12,14.1866667 3.36,16.9866667 3.36,20 C3.36,23.0133333 4.12,25.8133333 5.64,28.4 C7.08,30.9066667 9.05333333,32.8933333 11.56,34.36 C14.1466667,35.88 16.96,36.64 20,36.64 Z M20,18.36 C19.12,18.36 18.2933333,18.1333333 17.52,17.68 C16.7466667,17.2266667 16.1333333,16.6133333 15.68,15.84 C15.2266667,15.0666667 15,14.24 15,13.36 C15,12.48 15.2266667,11.6533333 15.68,10.88 C16.1333333,10.1066667 16.7466667,9.49333333 17.52,9.04 C18.2933333,8.58666667 19.12,8.36 20,8.36 C20.88,8.36 21.7066667,8.58666667 22.48,9.04 C23.2533333,9.49333333 23.8666667,10.1066667 24.32,10.88 C24.7733333,11.6533333 25,12.48 25,13.36 C25,14.24 24.7733333,15.0666667 24.32,15.84 C23.8666667,16.6133333 23.2533333,17.2266667 22.48,17.68 C21.7066667,18.1333333 20.88,18.36 20,18.36 Z M20,32.04 C18,32.04 16.0933333,31.5333333 14.28,30.52 C12.5466667,29.5866667 11.12,28.2933333 10,26.64 C10.0266667,25.6266667 10.6533333,24.6933333 11.88,23.84 C12.92,23.12 14.2666667,22.5333333 15.92,22.08 C17.4133333,21.68 18.7666667,21.48 19.98,21.48 C21.1933333,21.48 22.5466667,21.68 24.04,22.08 C25.6933333,22.5333333 27.0533333,23.12 28.12,23.84 C29.3466667,24.6933333 29.9733333,25.6266667 30,26.64 C28.88,28.2933333 27.4533333,29.5866667 25.72,30.52 C23.9333333,31.5333333 22.0266667,32.04 20,32.04 Z" id="" fill="#DFDFDF" fill-rule="nonzero"></path>
            <rect id="Rectangle" x="0" y="0" width="40" height="40"></rect>
        </g>
    </g>
</svg>